<svg width="48" height="48" viewBox="0 0 48 48" fill="none" xmlns="http://www.w3.org/2000/svg">
<g clip-path="url(#clip0_1458_8747)">
<path d="M12.6931 41.1103L13.4775 41.4982C16.7459 43.4373 20.4062 44.3422 24.0667 44.3422C35.5709 44.3422 44.9834 35.0343 44.9834 23.6579C44.9834 18.2284 42.7609 12.928 38.8392 9.04962C34.9172 5.17125 29.6879 2.97363 24.0667 2.97363C12.5625 2.97363 3.14983 12.2816 3.28064 23.7873C3.28064 27.6655 4.45721 31.4147 6.41808 34.6464L6.94096 35.4222L4.84946 43.0496L12.6931 41.1103Z" fill="#00E676"/>
<path d="M41.0608 6.98094C36.616 2.45634 30.4717 0 24.1967 0C10.8624 0 0.142531 10.7299 0.273156 23.7869C0.273156 27.9238 1.44972 31.9315 3.41078 35.5511L0.0117188 47.8325L12.6925 44.6005C16.2222 46.5398 20.1439 47.4448 24.066 47.4448C37.2697 47.4448 47.9896 36.7146 47.9896 23.6579C47.9896 17.3232 45.5056 11.3764 41.061 6.98094H41.0608ZM24.1967 43.4372C20.667 43.4372 17.1373 42.5324 14.1305 40.7225L13.3462 40.3346L5.76391 42.2737L7.72479 34.9051L7.20191 34.1293C1.44972 24.9507 4.1951 12.7984 13.6076 7.11012C23.0201 1.42202 35.178 4.1369 40.9302 13.4448C46.6822 22.7527 43.9368 34.7755 34.5245 40.4638C31.5175 42.4029 27.8572 43.437 24.1967 43.437V43.4372ZM35.7009 29.0876L34.2629 28.4412C34.2629 28.4412 32.1714 27.5362 30.864 26.8898C30.7332 26.8898 30.6026 26.7605 30.4717 26.7605C30.0795 26.7605 29.8181 26.8898 29.5566 27.0192C29.5566 27.0192 29.426 27.1484 27.5957 29.2168C27.4649 29.4753 27.2035 29.6047 26.9421 29.6047H26.8112C26.6806 29.6047 26.4192 29.4753 26.2884 29.3462L25.6347 29.0876C24.1967 28.4412 22.8895 27.6654 21.8435 26.6313C21.5821 26.3728 21.1899 26.1142 20.9284 25.8557C20.0133 24.9507 19.0982 23.9164 18.4447 22.7529L18.3139 22.4944C18.1832 22.365 18.1832 22.2359 18.0524 21.9773C18.0524 21.7188 18.0524 21.4603 18.1832 21.3309C18.1832 21.3309 18.7061 20.6845 19.0982 20.2968C19.3598 20.0381 19.4904 19.6503 19.7519 19.3918C20.0133 19.0039 20.1441 18.4869 20.0133 18.099C19.8827 17.4525 18.3139 13.9621 17.9218 13.1865C17.6602 12.7986 17.3989 12.6694 17.0067 12.54H15.5687C15.307 12.54 15.0458 12.6694 14.7842 12.6694L14.6534 12.7986C14.3919 12.9279 14.1305 13.1865 13.869 13.3156C13.6076 13.5744 13.4768 13.8327 13.2154 14.0914C12.3002 15.2549 11.7774 16.6769 11.7774 18.099C11.7774 19.1331 12.0388 20.1674 12.431 21.0724L12.5619 21.4603C13.7384 23.9164 15.307 26.1142 17.3989 28.0533L17.9218 28.5704C18.3139 28.9583 18.7061 29.2168 18.9675 29.6045C21.7129 31.9317 24.8504 33.6122 28.3801 34.5172C28.7723 34.6464 29.2952 34.6464 29.6874 34.7757H30.9946C31.6483 34.7757 32.4326 34.5172 32.9557 34.2587C33.3477 34.0001 33.6092 34.0001 33.8706 33.7416L34.1322 33.4829C34.3937 33.2243 34.6551 33.0952 34.9166 32.8366C35.178 32.5781 35.4394 32.3196 35.5702 32.0608C35.8317 31.5438 35.9623 30.8974 36.0931 30.2511V29.3462C36.0931 29.3462 35.9623 29.2168 35.7009 29.0876V29.0876Z" fill="white"/>
</g>
<defs>
<clipPath id="clip0_1458_8747">
<path d="M0 0H48V48H0V0Z" fill="white"/>
</clipPath>
</defs>
</svg>
