<svg width="153" height="36" viewBox="0 0 153 36" fill="none" xmlns="http://www.w3.org/2000/svg">
<g clip-path="url(#clip0_1527_8951)">
<path d="M40.504 13.0975C41.544 13.0975 42.432 13.3135 43.168 13.7455C43.904 14.1615 44.464 14.7375 44.848 15.4735C45.248 16.1935 45.448 17.0175 45.448 17.9455C45.448 18.1215 45.44 18.3055 45.424 18.4975C45.408 18.6735 45.376 18.8335 45.328 18.9775H38.176C38.192 20.7055 38.496 21.9535 39.088 22.7215C39.696 23.4735 40.592 23.8495 41.776 23.8495C42.576 23.8495 43.224 23.7215 43.72 23.4655C44.216 23.2095 44.68 22.8335 45.112 22.3375L45.352 22.5535C44.856 23.4335 44.192 24.1215 43.36 24.6175C42.544 25.1135 41.56 25.3615 40.408 25.3615C39.272 25.3615 38.264 25.1215 37.384 24.6415C36.504 24.1455 35.816 23.4415 35.32 22.5295C34.824 21.6175 34.576 20.5295 34.576 19.2655C34.576 17.9535 34.864 16.8415 35.44 15.9295C36.016 15.0015 36.752 14.2975 37.648 13.8175C38.56 13.3375 39.512 13.0975 40.504 13.0975ZM40.432 13.5775C39.968 13.5775 39.568 13.7215 39.232 14.0095C38.912 14.2815 38.656 14.7775 38.464 15.4975C38.288 16.2015 38.192 17.2015 38.176 18.4975H42.28C42.44 16.7535 42.376 15.4975 42.088 14.7295C41.8 13.9615 41.248 13.5775 40.432 13.5775ZM52.6463 25.0735L48.3983 14.8735C48.1743 14.3295 47.7903 13.9695 47.2463 13.7935L46.9103 13.6975V13.4575H53.1263V13.6975L52.6943 13.7935C52.0703 13.9535 51.8783 14.3695 52.1183 15.0415L54.6383 21.7375L56.9903 15.0895C57.1183 14.7695 57.1503 14.5055 57.0863 14.2975C57.0223 14.0895 56.8303 13.9375 56.5103 13.8415L55.9103 13.6975V13.4575H59.3903V13.6975L58.6943 13.8655C58.3903 13.9455 58.1503 14.0655 57.9743 14.2255C57.8143 14.3855 57.6783 14.6255 57.5663 14.9455L54.0383 25.0735H52.6463ZM66.1081 13.0975C67.1481 13.0975 68.0361 13.3135 68.7721 13.7455C69.5081 14.1615 70.0681 14.7375 70.4521 15.4735C70.8521 16.1935 71.0521 17.0175 71.0521 17.9455C71.0521 18.1215 71.0441 18.3055 71.0281 18.4975C71.0121 18.6735 70.9801 18.8335 70.9321 18.9775H63.7801C63.7961 20.7055 64.1001 21.9535 64.6921 22.7215C65.3001 23.4735 66.1961 23.8495 67.3801 23.8495C68.1801 23.8495 68.8281 23.7215 69.3241 23.4655C69.8201 23.2095 70.2841 22.8335 70.7161 22.3375L70.9561 22.5535C70.4601 23.4335 69.7961 24.1215 68.9641 24.6175C68.1481 25.1135 67.1641 25.3615 66.0121 25.3615C64.8761 25.3615 63.8681 25.1215 62.9881 24.6415C62.1081 24.1455 61.4201 23.4415 60.9241 22.5295C60.4281 21.6175 60.1801 20.5295 60.1801 19.2655C60.1801 17.9535 60.4681 16.8415 61.0441 15.9295C61.6201 15.0015 62.3561 14.2975 63.2521 13.8175C64.1641 13.3375 65.1161 13.0975 66.1081 13.0975ZM66.0361 13.5775C65.5721 13.5775 65.1721 13.7215 64.8361 14.0095C64.5161 14.2815 64.2601 14.7775 64.0681 15.4975C63.8921 16.2015 63.7961 17.2015 63.7801 18.4975H67.8841C68.0441 16.7535 67.9801 15.4975 67.6921 14.7295C67.4041 13.9615 66.8521 13.5775 66.0361 13.5775ZM72.9681 25.0015V24.7615L73.3041 24.6655C73.8641 24.5055 74.1441 24.1135 74.1441 23.4895V15.9775C74.1441 15.6255 74.0881 15.3695 73.9761 15.2095C73.8641 15.0335 73.6481 14.9135 73.3281 14.8495L72.9681 14.7535V14.5135L77.0721 13.1215L77.3121 13.3615L77.5041 14.8015C78.0641 14.3055 78.6961 13.8975 79.4001 13.5775C80.1041 13.2575 80.8001 13.0975 81.4881 13.0975C82.5441 13.0975 83.3521 13.3855 83.9121 13.9615C84.4881 14.5375 84.7761 15.4175 84.7761 16.6015V23.5135C84.7761 24.1375 85.0801 24.5295 85.6881 24.6895L85.9041 24.7615V25.0015H80.2401V24.7615L80.5521 24.6655C81.1121 24.4895 81.3921 24.0975 81.3921 23.4895V15.8335C81.3921 14.8095 80.8801 14.2975 79.8561 14.2975C79.1521 14.2975 78.3841 14.6495 77.5521 15.3535V23.5135C77.5521 24.1375 77.8321 24.5295 78.3921 24.6895L78.6081 24.7615V25.0015H72.9681ZM92.0059 25.3615C90.9819 25.3615 90.1819 25.1055 89.6059 24.5935C89.0459 24.0815 88.7659 23.2655 88.7659 22.1455V13.9375H87.1099V13.6975L87.6859 13.6015C88.1819 13.4895 88.6059 13.3295 88.9579 13.1215C89.3259 12.9135 89.6859 12.6335 90.0379 12.2815L92.0059 10.0975H92.2459L92.1739 13.4575H94.8619V13.9375H92.1499V22.5775C92.1499 23.1375 92.2699 23.5615 92.5099 23.8495C92.7659 24.1375 93.0859 24.2815 93.4699 24.2815C93.8059 24.2815 94.1019 24.2015 94.3579 24.0415C94.6139 23.8655 94.8699 23.6335 95.1259 23.3455L95.3659 23.5855C95.0459 24.1295 94.6059 24.5615 94.0459 24.8815C93.4859 25.2015 92.8059 25.3615 92.0059 25.3615ZM96.6972 30.5215V30.2815L96.9852 30.1855C97.5772 30.0255 97.8732 29.6415 97.8732 29.0335V15.9775C97.8732 15.6255 97.8092 15.3615 97.6812 15.1855C97.5692 15.0095 97.3532 14.8895 97.0332 14.8255L96.6972 14.7535V14.5135L100.777 13.1215L101.017 13.3615L101.233 14.1055C101.761 13.7855 102.345 13.5375 102.985 13.3615C103.641 13.1855 104.313 13.0975 105.001 13.0975C106.377 13.0975 107.465 13.6255 108.265 14.6815C109.081 15.7215 109.489 17.2175 109.489 19.1695C109.489 21.0895 109.041 22.6015 108.145 23.7055C107.265 24.8095 106.017 25.3615 104.401 25.3615C103.137 25.3615 102.073 25.1775 101.209 24.8095V28.9615C101.209 29.6015 101.497 30.0015 102.073 30.1615L102.529 30.2815V30.5215H96.6972ZM103.249 24.6655C104.049 24.6655 104.681 24.2495 105.145 23.4175C105.625 22.5855 105.865 21.2015 105.865 19.2655C105.865 17.3295 105.641 15.9775 105.193 15.2095C104.745 14.4255 104.097 14.0335 103.249 14.0335C102.657 14.0335 102.001 14.2255 101.281 14.6095V24.2815C101.889 24.5375 102.545 24.6655 103.249 24.6655ZM111.292 25.0015V24.7615L111.652 24.6655C111.972 24.5695 112.188 24.4255 112.3 24.2335C112.428 24.0415 112.492 23.7935 112.492 23.4895V15.9775C112.492 15.6255 112.428 15.3695 112.3 15.2095C112.188 15.0335 111.972 14.9135 111.652 14.8495L111.292 14.7535V14.5135L115.42 13.1215L115.66 13.3615L115.876 15.4255V15.6175C116.1 15.1695 116.388 14.7615 116.74 14.3935C117.108 14.0095 117.508 13.6975 117.94 13.4575C118.388 13.2175 118.828 13.0975 119.26 13.0975C119.868 13.0975 120.332 13.2655 120.652 13.6015C120.972 13.9375 121.132 14.3615 121.132 14.8735C121.132 15.4175 120.972 15.8415 120.652 16.1455C120.348 16.4335 119.98 16.5775 119.548 16.5775C118.876 16.5775 118.284 16.2415 117.772 15.5695L117.724 15.5215C117.564 15.2975 117.38 15.1775 117.172 15.1615C116.964 15.1295 116.772 15.2255 116.596 15.4495C116.436 15.5935 116.3 15.7695 116.188 15.9775C116.092 16.1695 115.996 16.3935 115.9 16.6495V23.3455C115.9 23.9855 116.18 24.3855 116.74 24.5455L117.508 24.7615V25.0015H111.292ZM125.486 11.8495C124.942 11.8495 124.478 11.6815 124.094 11.3455C123.726 10.9935 123.542 10.5535 123.542 10.0255C123.542 9.48146 123.726 9.04146 124.094 8.70546C124.478 8.36946 124.942 8.20146 125.486 8.20146C126.03 8.20146 126.486 8.36946 126.854 8.70546C127.222 9.04146 127.406 9.48146 127.406 10.0255C127.406 10.5535 127.222 10.9935 126.854 11.3455C126.486 11.6815 126.03 11.8495 125.486 11.8495ZM122.654 25.0015V24.7615L122.99 24.6655C123.31 24.5695 123.526 24.4255 123.638 24.2335C123.766 24.0415 123.83 23.7855 123.83 23.4655V15.9535C123.83 15.6175 123.766 15.3695 123.638 15.2095C123.526 15.0335 123.31 14.9135 122.99 14.8495L122.654 14.7775V14.5375L127.046 13.1215L127.286 13.3615L127.214 16.7695V23.4895C127.214 23.8095 127.27 24.0655 127.382 24.2575C127.51 24.4495 127.726 24.5935 128.03 24.6895L128.27 24.7615V25.0015H122.654ZM134.205 25.3615C133.421 25.3615 132.717 25.2655 132.093 25.0735C131.469 24.8975 130.893 24.6735 130.365 24.4015L130.389 21.5455H130.629L131.445 22.9855C131.797 23.6255 132.181 24.1055 132.597 24.4255C133.029 24.7295 133.573 24.8815 134.229 24.8815C134.997 24.8815 135.613 24.7135 136.077 24.3775C136.557 24.0255 136.797 23.5615 136.797 22.9855C136.797 22.4575 136.629 22.0255 136.293 21.6895C135.957 21.3535 135.333 21.0495 134.421 20.7775L133.413 20.4655C132.437 20.1775 131.669 19.7295 131.109 19.1215C130.549 18.5135 130.269 17.7695 130.269 16.8895C130.269 15.8335 130.685 14.9375 131.517 14.2015C132.349 13.4655 133.541 13.0975 135.093 13.0975C135.717 13.0975 136.301 13.1695 136.845 13.3135C137.405 13.4415 137.941 13.6415 138.453 13.9135L138.309 16.5055H138.069L137.229 15.0175C136.925 14.4895 136.621 14.1215 136.317 13.9135C136.029 13.6895 135.589 13.5775 134.997 13.5775C134.453 13.5775 133.941 13.7295 133.461 14.0335C132.981 14.3375 132.741 14.7695 132.741 15.3295C132.741 15.8735 132.941 16.3055 133.341 16.6255C133.757 16.9455 134.365 17.2415 135.165 17.5135L136.245 17.8255C137.397 18.1775 138.221 18.6655 138.717 19.2895C139.213 19.8975 139.461 20.6335 139.461 21.4975C139.461 22.6655 138.997 23.6015 138.069 24.3055C137.157 25.0095 135.869 25.3615 134.205 25.3615ZM147.25 13.0975C148.29 13.0975 149.178 13.3135 149.914 13.7455C150.65 14.1615 151.21 14.7375 151.594 15.4735C151.994 16.1935 152.194 17.0175 152.194 17.9455C152.194 18.1215 152.186 18.3055 152.17 18.4975C152.154 18.6735 152.122 18.8335 152.074 18.9775H144.922C144.938 20.7055 145.242 21.9535 145.834 22.7215C146.442 23.4735 147.338 23.8495 148.522 23.8495C149.322 23.8495 149.97 23.7215 150.466 23.4655C150.962 23.2095 151.426 22.8335 151.858 22.3375L152.098 22.5535C151.602 23.4335 150.938 24.1215 150.106 24.6175C149.29 25.1135 148.306 25.3615 147.154 25.3615C146.018 25.3615 145.01 25.1215 144.13 24.6415C143.25 24.1455 142.562 23.4415 142.066 22.5295C141.57 21.6175 141.322 20.5295 141.322 19.2655C141.322 17.9535 141.61 16.8415 142.186 15.9295C142.762 15.0015 143.498 14.2975 144.394 13.8175C145.306 13.3375 146.258 13.0975 147.25 13.0975ZM147.178 13.5775C146.714 13.5775 146.314 13.7215 145.978 14.0095C145.658 14.2815 145.402 14.7775 145.21 15.4975C145.034 16.2015 144.938 17.2015 144.922 18.4975H149.026C149.186 16.7535 149.122 15.4975 148.834 14.7295C148.546 13.9615 147.994 13.5775 147.178 13.5775Z" fill="#0A0A0A"/>
<path d="M12.895 27.6631C11.1746 27.6328 9.66628 26.5056 9.14984 24.8642L7.84043 20.7026L6.4754 16.7828C5.87507 15.0589 6.51801 13.1472 8.03808 12.1365L11.3557 9.93045L14.7104 7.54305C16.1444 6.52254 18.0769 6.55926 19.4711 7.63352L22.9449 10.3102L26.4959 12.8834C27.9212 13.9161 28.5038 15.7591 27.9314 17.4234L26.5921 21.317L25.4163 25.1237C24.8776 26.8678 23.2264 28.0259 21.403 27.9386L17.2571 27.7399L12.895 27.6631Z" fill="url(#paint0_linear_1527_8951)"/>
<path d="M16.1104 23.1334C14.0208 23.1202 12.2936 21.5007 12.1458 19.4163L12.0449 17.9917L11.99 17.116C11.8459 14.8159 13.6702 12.8701 15.9749 12.8659L16.8523 12.8643L18.2804 12.8733C20.37 12.8866 22.0973 14.5061 22.245 16.5905L22.346 18.0151L22.4009 18.8907C22.545 21.1909 20.7206 23.1367 18.4159 23.1409L17.5386 23.1425L16.1104 23.1334Z" fill="url(#paint1_linear_1527_8951)"/>
</g>
<defs>
<linearGradient id="paint0_linear_1527_8951" x1="16.5617" y1="29.8581" x2="18.9111" y2="5.84571" gradientUnits="userSpaceOnUse">
<stop stop-color="#DD81FF"/>
<stop offset="1" stop-color="#1238FF" stop-opacity="0.59"/>
</linearGradient>
<linearGradient id="paint1_linear_1527_8951" x1="16.1376" y1="24.9115" x2="19.2503" y2="11.0788" gradientUnits="userSpaceOnUse">
<stop stop-color="#1238FF" stop-opacity="0.59"/>
<stop offset="1" stop-color="#DD81FF"/>
</linearGradient>
<clipPath id="clip0_1527_8951">
<rect width="153" height="34.1903" fill="white" transform="translate(0 0.904785)"/>
</clipPath>
</defs>
</svg>
