<svg width="500" height="536" viewBox="0 0 500 536" fill="none" xmlns="http://www.w3.org/2000/svg">
<path d="M-246.184 673.426L-233.604 671.637C-142.524 658.685 -98.7217 552.779 -154.044 479.275L-161.995 468.711C-213.994 399.622 -172.406 300.104 -86.7091 288.556L-56.7395 284.518C5.26552 276.163 40.7516 209.399 12.9883 153.331V153.331" stroke="#C2C2C2" stroke-width="0.653416"/>
<path d="M-235.988 676.681L-223.408 674.892C-132.327 661.94 -88.5253 556.035 -143.848 482.53L-151.798 471.966C-203.798 402.877 -162.21 303.359 -76.5127 291.812L-46.5431 287.773C15.4619 279.418 50.948 212.655 23.1847 156.587V156.587" stroke="#C2C2C2" stroke-width="0.653416"/>
<path d="M-225.792 679.938L-213.212 678.149C-122.131 665.197 -78.329 559.291 -133.651 485.787L-141.602 475.223C-193.601 406.134 -152.013 306.616 -66.3164 295.068L-36.3468 291.03C25.6582 282.675 61.1443 215.911 33.381 159.843V159.843" stroke="#C2C2C2" stroke-width="0.653416"/>
<path d="M-215.595 683.195L-203.016 681.406C-111.935 668.453 -68.1327 562.548 -123.455 489.044L-131.406 478.48C-183.405 409.39 -141.817 309.872 -56.1201 298.325L-26.1505 294.287C35.8545 285.932 71.3406 219.168 43.5773 163.1V163.1" stroke="#C2C2C2" stroke-width="0.653416"/>
<path d="M-205.399 686.45L-192.819 684.661C-101.738 671.708 -57.9364 565.803 -113.259 492.298L-121.209 481.735C-173.209 412.645 -131.621 313.127 -45.9238 301.58L-15.9542 297.542C46.0508 289.187 81.5369 222.423 53.7735 166.355V166.355" stroke="#C2C2C2" stroke-width="0.653416"/>
<path d="M-195.203 689.707L-182.623 687.918C-91.542 674.965 -47.7401 569.06 -103.062 495.555L-111.013 484.992C-163.012 415.902 -121.424 316.384 -35.7275 304.837L-5.75793 300.799C56.2471 292.444 91.7332 225.68 63.9698 169.612V169.612" stroke="#C2C2C2" stroke-width="0.653416"/>
<path d="M-185.007 692.964L-172.427 691.175C-81.3457 678.222 -37.5438 572.317 -92.8662 498.812L-100.817 488.248C-152.816 419.159 -111.228 319.641 -25.5313 308.094L4.43836 304.056C66.4434 295.701 101.929 228.937 74.1661 172.869V172.869" stroke="#C2C2C2" stroke-width="0.653416"/>
<path d="M-174.81 696.217L-162.23 694.428C-71.1495 681.475 -27.3475 575.57 -82.6699 502.065L-90.6205 491.501C-142.62 422.412 -101.032 322.894 -15.335 311.347L14.6347 307.308C76.6397 298.954 112.126 232.19 84.3624 176.122V176.122" stroke="#C2C2C2" stroke-width="0.653416"/>
<path d="M-164.614 699.473L-152.034 697.684C-60.9532 684.732 -17.1512 578.827 -72.4736 505.322L-80.4243 494.758C-132.424 425.669 -90.8356 326.151 -5.13867 314.604L24.8309 310.565C86.836 302.21 122.322 235.447 94.5587 179.379V179.379" stroke="#C2C2C2" stroke-width="0.653416"/>
<path d="M-154.418 702.729L-141.838 700.94C-50.7569 687.988 -6.95494 582.082 -62.2773 508.578L-70.228 498.014C-122.227 428.925 -80.6393 329.407 5.05762 317.859L35.0272 313.821C97.0322 305.466 132.518 238.702 104.755 182.634V182.634" stroke="#C2C2C2" stroke-width="0.653416"/>
<path d="M-144.221 705.985L-131.641 704.196C-40.5606 691.243 3.24135 585.338 -52.0811 511.834L-60.0317 501.27C-112.031 432.18 -70.443 332.662 15.2539 321.115L45.2235 317.077C107.229 308.722 142.715 241.958 114.951 185.89V185.89" stroke="#C2C2C2" stroke-width="0.653416"/>
<path d="M-134.025 709.241L-121.445 707.452C-30.3643 694.499 13.4376 588.594 -41.8848 515.089L-49.8354 504.526C-101.835 435.436 -60.2467 335.918 25.4502 324.371L55.4198 320.333C117.425 311.978 152.911 245.214 125.148 189.146V189.146" stroke="#C2C2C2" stroke-width="0.653416"/>
<path d="M-123.829 712.496L-111.249 710.707C-20.168 697.754 23.6339 591.849 -31.6885 518.344L-39.6391 507.781C-91.6385 438.691 -50.0504 339.173 35.6465 327.626L65.6161 323.588C127.621 315.233 163.107 248.469 135.344 192.401V192.401" stroke="#C2C2C2" stroke-width="0.653416"/>
<path d="M-113.633 715.753L-101.053 713.964C-9.97172 701.011 33.8302 595.106 -21.4922 521.601L-29.4428 511.038C-81.4422 441.948 -39.8541 342.43 45.8428 330.883L75.8124 326.845C137.817 318.49 173.303 251.726 145.54 195.658V195.658" stroke="#C2C2C2" stroke-width="0.653416"/>
<path d="M-103.436 719.01L-90.8563 717.221C0.224573 704.268 44.0265 598.363 -11.2959 524.858L-19.2465 514.294C-71.2459 445.205 -29.6578 345.687 56.0391 334.14L86.0087 330.101C148.014 321.747 183.5 254.983 155.736 198.915V198.915" stroke="#C2C2C2" stroke-width="0.653416"/>
<path d="M-93.24 722.188L-80.66 720.399C10.4209 707.447 54.2228 601.541 -1.09961 528.037L-9.05023 517.473C-61.0496 448.384 -19.4615 348.866 66.2354 337.318L96.205 333.28C158.21 324.925 193.696 258.161 165.933 202.093V202.093" stroke="#C2C2C2" stroke-width="0.653416"/>
<path d="M-83.0437 725.366L-70.4638 723.577C20.6172 710.624 64.4191 604.719 9.09668 531.214L1.14606 520.651C-50.8533 451.561 -9.26524 352.043 76.4316 340.496L106.401 336.458C168.406 328.103 203.892 261.339 176.129 205.271V205.271" stroke="#C2C2C2" stroke-width="0.653416"/>
<path d="M-72.8474 728.547L-60.2675 726.758C30.8134 713.805 74.6154 607.9 19.293 534.395L11.3423 523.831C-40.657 454.742 0.931046 355.224 86.6279 343.677L116.598 339.639C178.603 331.284 214.089 264.52 186.325 208.452V208.452" stroke="#C2C2C2" stroke-width="0.653416"/>
<path d="M-62.6512 731.724L-50.0712 729.935C41.0097 716.983 84.8117 611.078 29.4893 537.573L21.5386 527.009C-30.4607 457.92 11.1273 358.402 96.8242 346.855L126.794 342.816C188.799 334.461 224.285 267.698 196.522 211.63V211.63" stroke="#C2C2C2" stroke-width="0.653416"/>
<path d="M-52.4549 734.905L-39.8749 733.116C51.206 720.163 95.008 614.258 39.6856 540.754L31.7349 530.19C-20.2644 461.1 21.3236 361.582 107.021 350.035L136.99 345.997C198.995 337.642 234.481 270.878 206.718 214.81V214.81" stroke="#C2C2C2" stroke-width="0.653416"/>
<path d="M-42.2586 738.082L-29.6786 736.293C61.4023 723.34 105.204 617.435 49.8818 543.93L41.9312 533.367C-10.0682 464.277 31.5199 364.759 117.217 353.212L147.186 349.174C209.191 340.819 244.677 274.055 216.914 217.987V217.987" stroke="#C2C2C2" stroke-width="0.653416"/>
<path d="M-32.0623 741.263L-19.4823 739.473C71.5986 726.521 115.401 620.616 60.0781 547.111L52.1275 536.547C0.128134 467.458 41.7162 367.94 127.413 356.393L157.383 352.354C219.388 344 254.874 277.236 227.11 221.168V221.168" stroke="#C2C2C2" stroke-width="0.653416"/>
<path d="M-21.866 744.44L-9.28585 742.651C81.795 729.698 125.597 623.793 70.2745 550.289L62.324 539.725C10.3246 470.636 51.9125 371.117 137.609 359.57L167.579 355.532C229.584 347.177 265.07 280.413 237.307 224.345V224.345" stroke="#C2C2C2" stroke-width="0.653416"/>
<path d="M-11.6697 747.62L0.910272 745.831C91.9912 732.878 135.793 626.973 80.4707 553.468L72.5201 542.905C20.5207 473.815 62.1088 374.297 147.806 362.75L177.775 358.712C239.78 350.357 275.266 283.593 247.503 227.525V227.525" stroke="#C2C2C2" stroke-width="0.653416"/>
<path d="M-1.47342 750.799L11.1066 749.01C102.187 736.057 145.989 630.152 90.667 556.647L82.7164 546.083C30.717 476.994 72.3051 377.476 158.002 365.929L187.972 361.89C249.977 353.536 285.463 286.772 257.699 230.704V230.704" stroke="#C2C2C2" stroke-width="0.653416"/>
<path d="M8.72287 753.977L21.3029 752.188C112.384 739.236 156.186 633.33 100.863 559.826L92.9127 549.262C40.9133 480.173 82.5014 380.655 168.198 369.107L198.168 365.069C260.173 356.714 295.659 289.95 267.896 233.882V233.882" stroke="#C2C2C2" stroke-width="0.653416"/>
<path d="M18.9192 757.156L31.4991 755.367C122.58 742.414 166.382 636.509 111.06 563.005L103.109 552.441C51.1096 483.351 92.6976 383.833 178.395 372.286L208.364 368.248C270.369 359.893 305.855 293.129 278.092 237.061V237.061" stroke="#C2C2C2" stroke-width="0.653416"/>
<path d="M29.1154 760.336L41.6954 758.547C132.776 745.594 176.578 639.689 121.256 566.184L113.305 555.621C61.3059 486.531 102.894 387.013 188.591 375.466L218.56 371.428C280.565 363.073 316.052 296.309 288.288 240.241V240.241" stroke="#C2C2C2" stroke-width="0.653416"/>
<path d="M39.3117 763.515L51.8917 761.726C142.973 748.774 186.775 642.869 131.452 569.364L123.502 558.8C71.5022 489.711 113.09 390.193 198.787 378.646L228.757 374.607C290.762 366.252 326.248 299.489 298.484 243.421V243.421" stroke="#C2C2C2" stroke-width="0.653416"/>
</svg>
