<svg width="536" height="523" viewBox="0 0 536 523" fill="none" xmlns="http://www.w3.org/2000/svg">
<path d="M496.925 -256.879L494.807 -244.351C479.474 -153.64 567.065 -79.7317 653.903 -110.106L666.383 -114.471C748.005 -143.021 830.183 -73.1624 815.147 11.9916L809.889 41.7714C799.01 103.384 851.836 157.477 913.689 148.061V148.061" stroke="#C2C2C2" stroke-width="0.653416"/>
<path d="M485.368 -250.456L483.25 -237.928C467.918 -147.217 555.508 -73.3086 642.346 -103.683L654.826 -108.048C736.449 -136.598 818.626 -66.7393 803.59 18.4147L798.332 48.1945C787.453 109.807 840.279 163.9 902.132 154.484V154.484" stroke="#C2C2C2" stroke-width="0.653416"/>
<path d="M473.81 -244.033L471.693 -231.504C456.36 -140.793 543.95 -66.8852 630.789 -97.2594L643.269 -101.625C724.891 -130.174 807.069 -60.3159 792.033 24.8382L786.775 54.618C775.895 116.23 828.722 170.324 890.574 160.908V160.908" stroke="#C2C2C2" stroke-width="0.653416"/>
<path d="M462.254 -237.611L460.136 -225.082C444.804 -134.371 532.394 -60.4632 619.232 -90.8374L631.712 -95.2026C713.335 -123.752 795.512 -53.8939 780.476 31.2602L775.218 61.04C764.339 122.652 817.165 176.746 879.018 167.33V167.33" stroke="#C2C2C2" stroke-width="0.653416"/>
<path d="M450.697 -231.187L448.58 -218.658C433.247 -127.948 520.837 -54.0393 607.676 -84.4136L620.156 -88.7788C701.778 -117.329 783.956 -47.47 768.92 37.684L763.661 67.4638C752.782 129.076 805.608 183.169 867.461 173.754V173.754" stroke="#C2C2C2" stroke-width="0.653416"/>
<path d="M439.141 -224.764L437.023 -212.235C421.69 -121.525 509.281 -47.6165 596.119 -77.9907L608.599 -82.356C690.221 -110.906 772.399 -41.0472 757.363 44.1069L752.105 73.8866C741.226 135.499 794.052 189.592 855.905 180.176V180.176" stroke="#C2C2C2" stroke-width="0.653416"/>
<path d="M427.584 -218.342L425.466 -205.813C410.134 -115.102 497.724 -41.1941 584.562 -71.5684L597.042 -75.9336C678.665 -104.483 760.842 -34.6248 745.807 50.5292L740.548 80.309C729.669 141.921 782.495 196.015 844.348 186.599V186.599" stroke="#C2C2C2" stroke-width="0.653416"/>
<path d="M416.027 -211.919L413.91 -199.39C398.577 -108.679 486.167 -34.7708 573.006 -65.145L585.486 -69.5103C667.108 -98.06 749.286 -28.2015 734.25 56.9526L728.992 86.7323C718.112 148.345 770.939 202.438 832.791 193.022V193.022" stroke="#C2C2C2" stroke-width="0.653416"/>
<path d="M404.471 -205.495L402.353 -192.966C387.02 -102.256 474.611 -28.3474 561.449 -58.7217L573.929 -63.0869C655.551 -91.6367 737.729 -21.7781 722.693 63.3759L717.435 93.1557C706.556 154.768 759.382 208.861 821.235 199.446V199.446" stroke="#C2C2C2" stroke-width="0.653416"/>
<path d="M392.914 -199.073L390.796 -186.544C375.464 -95.8334 463.054 -21.9251 549.892 -52.2993L562.372 -56.6645C643.995 -85.2143 726.173 -15.3558 711.137 69.7983L705.878 99.5781C694.999 161.19 747.825 215.284 809.678 205.868V205.868" stroke="#C2C2C2" stroke-width="0.653416"/>
<path d="M381.357 -192.65L379.24 -180.121C363.907 -89.41 451.497 -15.5017 538.336 -45.876L550.816 -50.2412C632.438 -78.791 714.616 -8.93244 699.58 76.2216L694.322 106.001C683.443 167.614 736.269 221.707 798.121 212.291V212.291" stroke="#C2C2C2" stroke-width="0.653416"/>
<path d="M369.801 -186.226L367.683 -173.697C352.35 -82.9867 439.941 -9.07839 526.779 -39.4526L539.259 -43.8179C620.881 -72.3676 703.059 -2.5091 688.023 82.645L682.765 112.425C671.886 174.037 724.712 228.13 786.565 218.715V218.715" stroke="#C2C2C2" stroke-width="0.653416"/>
<path d="M358.244 -179.804L356.126 -167.275C340.794 -76.5643 428.384 -2.65602 515.223 -33.0303L527.702 -37.3955C609.325 -65.9453 691.503 3.91326 676.467 89.0673L671.208 118.847C660.329 180.459 713.155 234.553 775.008 225.137V225.137" stroke="#C2C2C2" stroke-width="0.653416"/>
<path d="M346.687 -173.38L344.57 -160.852C329.237 -70.141 416.827 3.76732 503.666 -26.6069L516.146 -30.9722C597.768 -59.5219 679.946 10.3366 664.91 95.4907L659.652 125.27C648.773 186.883 701.599 240.976 763.452 231.56V231.56" stroke="#C2C2C2" stroke-width="0.653416"/>
<path d="M335.131 -166.957L333.013 -154.428C317.681 -63.7177 405.271 10.1907 492.109 -20.1836L504.589 -24.5488C586.211 -53.0986 668.389 16.7599 653.353 101.914L648.095 131.694C637.216 193.306 690.042 247.399 751.895 237.984V237.984" stroke="#C2C2C2" stroke-width="0.653416"/>
<path d="M323.574 -160.685L321.456 -148.156C306.124 -57.4457 393.714 16.4626 480.553 -13.9116L493.033 -18.2769C574.655 -46.8266 656.833 23.0319 641.797 108.186L636.538 137.966C625.659 199.578 678.485 253.671 740.338 244.256V244.256" stroke="#C2C2C2" stroke-width="0.653416"/>
<path d="M312.018 -154.414L309.9 -141.885C294.567 -51.1742 382.158 22.7341 468.996 -7.64015L481.476 -12.0054C563.098 -40.5551 645.276 29.3034 630.24 114.457L624.982 144.237C614.103 205.849 666.929 259.943 728.782 250.527V250.527" stroke="#C2C2C2" stroke-width="0.653416"/>
<path d="M300.461 -148.145L298.343 -135.616C283.011 -44.9052 370.601 29.0032 457.439 -1.37111L469.919 -5.73632C551.542 -34.2861 633.719 35.5724 618.683 120.726L613.425 150.506C602.546 212.119 655.372 266.212 717.225 256.796V256.796" stroke="#C2C2C2" stroke-width="0.653416"/>
<path d="M288.904 -141.873L286.787 -129.344C271.454 -38.6337 359.044 35.2746 445.883 4.90038L458.363 0.53516C539.985 -28.0146 622.163 41.8439 607.127 126.998L601.869 156.778C590.989 218.39 643.816 272.483 705.668 263.068V263.068" stroke="#C2C2C2" stroke-width="0.653416"/>
<path d="M277.348 -135.603L275.23 -123.074C259.897 -32.3632 347.488 41.5451 434.326 11.1709L446.806 6.80567C528.428 -21.7441 610.606 48.1144 595.57 133.268L590.312 163.048C579.433 224.661 632.259 278.754 694.112 269.338V269.338" stroke="#C2C2C2" stroke-width="0.653416"/>
<path d="M265.791 -129.332L263.673 -116.803C248.341 -26.0922 335.931 47.8161 422.769 17.4419L435.249 13.0767C516.872 -15.4731 599.049 54.3854 584.014 139.539L578.755 169.319C567.876 230.932 620.702 285.025 682.555 275.609V275.609" stroke="#C2C2C2" stroke-width="0.653416"/>
<path d="M254.234 -123.061L252.117 -110.532C236.784 -19.8212 324.374 54.0871 411.213 23.7129L423.693 19.3477C505.315 -9.20212 587.493 60.6564 572.457 145.81L567.199 175.59C556.32 237.203 609.146 291.296 670.998 281.88V281.88" stroke="#C2C2C2" stroke-width="0.653416"/>
<path d="M242.678 -116.789L240.56 -104.26C225.227 -13.5491 312.818 60.3591 399.656 29.9849L412.136 25.6198C493.758 -2.93003 575.936 66.9284 560.9 152.082L555.642 181.862C544.763 243.475 597.589 297.568 659.442 288.152V288.152" stroke="#C2C2C2" stroke-width="0.653416"/>
<path d="M231.121 -110.519L229.003 -97.9898C213.671 -7.27918 301.261 66.6291 388.099 36.2549L400.579 31.8897C482.202 3.33987 564.38 73.1984 549.344 158.352L544.085 188.132C533.206 249.745 586.032 303.838 647.885 294.422V294.422" stroke="#C2C2C2" stroke-width="0.653416"/>
<path d="M219.564 -104.248L217.447 -91.7193C202.114 -1.00868 289.704 72.8996 376.543 42.5254L389.023 38.1602C470.645 9.61038 552.823 79.4689 537.787 164.623L532.529 194.403C521.65 256.015 574.476 310.108 636.328 300.693V300.693" stroke="#C2C2C2" stroke-width="0.653416"/>
<path d="M208.008 -97.9771L205.89 -85.4483C190.558 5.26232 278.148 79.1706 364.986 48.7964L377.466 44.4312C459.088 15.8814 541.266 85.7399 526.23 170.894L520.972 200.674C510.093 262.286 562.919 316.379 624.772 306.964V306.964" stroke="#C2C2C2" stroke-width="0.653416"/>
<path d="M196.451 -91.7062L194.333 -79.1773C179.001 11.5333 266.591 85.4416 353.43 55.0674L365.909 50.7022C447.532 22.1524 529.71 92.0109 514.674 177.165L509.415 206.945C498.536 268.557 551.362 322.65 613.215 313.235V313.235" stroke="#C2C2C2" stroke-width="0.653416"/>
<path d="M184.895 -85.4347L182.777 -72.9058C167.444 17.8048 255.035 91.7131 341.873 61.3389L354.353 56.9736C435.975 28.4239 518.153 98.2824 503.117 183.436L497.859 213.216C486.98 274.828 539.806 328.922 601.659 319.506V319.506" stroke="#C2C2C2" stroke-width="0.653416"/>
<path d="M173.338 -79.1646L171.22 -66.6358C155.888 24.0748 243.478 97.9831 330.316 67.6089L342.796 63.2437C424.419 34.6939 506.596 104.552 491.56 189.706L486.302 219.486C475.423 281.099 528.249 335.192 590.102 325.776V325.776" stroke="#C2C2C2" stroke-width="0.653416"/>
</svg>
