<svg width="488" height="488" viewBox="0 0 488 488" fill="none" xmlns="http://www.w3.org/2000/svg">
<rect width="488" height="488" fill="white"/>
<path d="M424.56 162.187L255.322 76.6404C256.735 71.6468 256.786 66.3657 255.469 61.3459C254.151 56.3261 251.513 51.7507 247.829 48.0952C244.145 44.4396 239.549 41.8374 234.52 40.5588C229.49 39.2803 224.209 39.372 219.227 40.8246C214.244 42.2772 209.742 45.0375 206.187 48.8188C202.632 52.6002 200.155 57.2645 199.013 62.327C197.87 67.3896 198.105 72.6658 199.691 77.6072C201.278 82.5486 204.158 86.975 208.034 90.4264L158.6 188.173C158.561 188.24 158.541 188.317 158.541 188.395C158.541 188.473 158.563 188.549 158.602 188.616C158.642 188.683 158.699 188.739 158.767 188.777C158.835 188.814 158.912 188.833 158.99 188.832C159.43 188.832 155.77 195.786 208.693 91.0364C213.013 94.6523 218.293 96.9311 223.887 97.5941C229.482 98.2571 235.148 97.2756 240.194 94.7696C296.314 203.74 292.458 196.591 292.898 196.591C293.337 196.591 291.873 196.762 433.978 173.874C434.997 176.517 435.45 179.344 435.307 182.173C435.164 185.002 434.429 187.769 433.149 190.296L416.288 223.748C416.233 223.858 416.224 223.985 416.263 224.102C416.302 224.219 416.386 224.315 416.496 224.37C416.606 224.425 416.733 224.434 416.85 224.395C416.966 224.356 417.063 224.273 417.118 224.163L434.003 190.71C435.261 188.219 436.015 185.503 436.222 182.719C436.428 179.935 436.083 177.138 435.205 174.487C434.328 171.837 432.936 169.386 431.109 167.276C429.282 165.165 427.057 163.435 424.56 162.187ZM293.19 195.639L241.072 94.3548C247.728 90.7666 252.739 84.7422 255.053 77.5432L424.218 162.943C428.441 165.056 431.785 168.59 433.661 172.923L293.19 195.639Z" fill="#3B29AB"/>
<path d="M398.891 258.152L371.441 312.491C370.243 314.874 368.586 316.998 366.565 318.74C364.544 320.482 362.2 321.808 359.665 322.642C357.131 323.477 354.457 323.802 351.797 323.601C349.137 323.4 346.542 322.676 344.162 321.47L316.688 307.586C316.578 307.531 316.45 307.522 316.334 307.561C316.217 307.6 316.121 307.684 316.066 307.794C316.011 307.904 316.002 308.031 316.04 308.148C316.079 308.265 316.163 308.361 316.273 308.416L343.747 322.275C346.235 323.536 348.947 324.294 351.727 324.506C354.508 324.718 357.303 324.378 359.953 323.508C362.603 322.638 365.054 321.253 367.168 319.434C369.282 317.615 371.016 315.396 372.271 312.906L399.721 258.64C399.753 258.586 399.774 258.525 399.783 258.463C399.792 258.4 399.788 258.336 399.772 258.275C399.756 258.214 399.728 258.157 399.69 258.106C399.652 258.056 399.605 258.013 399.55 257.981C399.496 257.949 399.435 257.928 399.373 257.919C399.31 257.911 399.247 257.914 399.185 257.93C399.124 257.946 399.067 257.974 399.016 258.012C398.966 258.05 398.923 258.098 398.891 258.152Z" fill="#3B29AB"/>
<path d="M381.348 218.502C382.397 235.265 383.031 243.268 375.052 257.81L311.1 258.42C324.178 278.843 320.323 333.011 315.297 367.318C302.661 370.911 289.256 370.775 276.696 366.927C277.77 352.873 277.672 331.791 277.355 315.687L288.969 287.554L235.289 310.783C167.97 339.892 149.889 288.359 149.889 288.359C159.438 282.409 168.621 275.891 177.388 268.839C181.391 271.179 186.088 272.042 190.662 271.279C209.986 267.278 246.611 248.319 256.151 238.144C259.962 234.149 263.243 229.68 265.911 224.846L285.7 216.428C292.362 213.589 299.607 212.385 306.83 212.914L381.348 218.502Z" fill="#FFD0C7"/>
<path d="M215.086 317.2C204.764 328.639 192.273 337.913 178.337 344.485C164.402 351.057 149.3 354.795 133.908 355.483C118.516 356.171 103.141 353.795 88.6746 348.492C74.2085 343.19 60.9397 335.067 49.6385 324.594C38.3372 314.122 29.2287 301.509 22.8417 287.488C16.4546 273.467 12.9162 258.317 12.4319 242.917C11.9475 227.518 14.5269 212.175 20.0203 197.78C25.5136 183.386 33.8116 170.225 44.4324 159.064C39.1228 166.307 34.4375 173.988 30.4268 182.024C30.4268 182.219 30.256 182.268 30.7196 182.707C31.5492 183.488 34.1844 185.464 41.9192 191.589C42.3447 191.927 42.8451 192.157 43.3784 192.261C43.9117 192.366 44.4622 192.34 44.9836 192.187C45.5049 192.034 45.9819 191.758 46.3743 191.382C46.7667 191.006 47.063 190.541 47.2384 190.027L65.1236 138.494C65.358 137.831 65.3801 137.11 65.1867 136.433C64.9934 135.756 64.5941 135.156 64.0443 134.716C63.4945 134.277 62.8215 134.019 62.1186 133.979C61.4157 133.939 60.7177 134.118 60.1216 134.493C43.6647 142.429 28.1883 152.255 14.0056 163.773C13.5495 164.065 13.1697 164.462 12.8974 164.931C12.6252 165.399 12.4682 165.926 12.4396 166.467C12.411 167.008 12.5116 167.548 12.7329 168.043C12.9543 168.538 13.2902 168.972 13.7128 169.312C21.2523 175.265 23.4727 177.12 24.1559 177.608C24.8391 178.096 24.8879 177.803 25.2052 177.437C26.2544 176.29 28.4016 172.191 41.5044 160.918C20.6862 184.027 9.90077 214.459 11.5206 245.52C13.1405 276.582 27.033 305.727 50.1419 326.545C73.2509 347.363 103.683 358.149 134.744 356.529C165.806 354.909 194.951 341.016 215.769 317.908C215.863 317.817 215.917 317.693 215.919 317.562C215.922 317.432 215.872 317.306 215.781 317.212C215.691 317.118 215.567 317.064 215.436 317.062C215.306 317.06 215.18 317.109 215.086 317.2ZM24.522 176.632L14.2984 168.531C13.9778 168.281 13.7245 167.956 13.5615 167.584C13.3984 167.212 13.3308 166.805 13.3647 166.401C13.3987 165.996 13.533 165.606 13.7557 165.267C13.9784 164.927 14.2823 164.648 14.64 164.456C28.7829 152.932 44.2278 143.105 60.6584 135.176C61.0888 134.877 61.604 134.725 62.1278 134.741C62.6516 134.758 63.1561 134.943 63.5667 135.269C63.9772 135.594 64.272 136.043 64.4074 136.55C64.5428 137.056 64.5116 137.592 64.3184 138.08L46.36 189.734C46.2368 190.113 46.0227 190.456 45.7364 190.733C45.4501 191.01 45.1003 191.213 44.7176 191.324C44.3349 191.435 43.9309 191.45 43.5409 191.368C43.1509 191.287 42.7868 191.111 42.4804 190.857L31.4028 182.097C36.4816 172.541 42.2984 163.396 48.7999 154.745C49.1171 154.159 48.556 153.793 48.19 154.11C39.7232 161.186 30.988 168.36 24.522 176.632Z" fill="#3B29AB"/>
<path d="M357.777 62.83C357.729 62.7273 357.72 62.6105 357.752 62.5016C357.784 62.3927 357.855 62.2993 357.951 62.2391C358.047 62.179 358.162 62.1562 358.274 62.1752C358.386 62.1941 358.487 62.2535 358.558 62.342C363.633 71.004 376.517 71.2236 380.64 62.9032C381.901 59.965 381.958 56.6493 380.799 53.6695C379.64 50.6897 377.357 48.284 374.443 46.97C365.488 42.5292 355.606 48.8732 357.021 58.072C357.043 58.1916 357.016 58.3148 356.948 58.4152C356.879 58.5156 356.774 58.5851 356.655 58.6088C356.534 58.618 356.413 58.5838 356.315 58.5123C356.217 58.4407 356.147 58.3366 356.118 58.2184C354.581 48.2144 365.268 41.3824 374.833 46.1404C377.965 47.5403 380.419 50.1189 381.661 53.3166C382.904 56.5143 382.835 60.0731 381.47 63.2204C376.98 72.3216 363.194 72.0776 357.777 62.83Z" fill="#3B29AB"/>
<path d="M358.167 63.0496L352.214 62.6104C352.124 62.6021 352.039 62.5678 351.968 62.5119C351.898 62.456 351.845 62.3807 351.817 62.2954C351.788 62.21 351.785 62.1182 351.808 62.0312C351.831 61.9441 351.879 61.8656 351.945 61.8052L356.24 57.8036C356.282 57.7517 356.335 57.7097 356.395 57.6804C356.456 57.651 356.522 57.6351 356.589 57.6336C356.656 57.6322 356.722 57.6453 356.783 57.672C356.845 57.6987 356.9 57.7384 356.944 57.7883C356.989 57.8383 357.022 57.8974 357.042 57.9614C357.061 58.0255 357.067 58.093 357.058 58.1594C357.049 58.2258 357.026 58.2894 356.99 58.3459C356.954 58.4024 356.906 58.4505 356.85 58.4868L353.312 61.7808L358.192 62.1224C358.315 62.1256 358.431 62.1776 358.516 62.2668C358.601 62.356 358.646 62.4752 358.643 62.5982C358.64 62.7211 358.588 62.8378 358.499 62.9224C358.409 63.0071 358.29 63.0528 358.167 63.0496Z" fill="#3B29AB"/>
<path d="M435.076 330.84C435.911 329.38 436.442 327.766 436.638 326.096C436.833 324.425 436.688 322.732 436.212 321.119C435.736 319.506 434.938 318.006 433.867 316.709C432.796 315.413 431.474 314.346 429.98 313.573C428.486 312.801 426.852 312.339 425.174 312.214C423.497 312.09 421.812 312.306 420.221 312.85C418.629 313.394 417.164 314.255 415.914 315.38C414.664 316.505 413.654 317.871 412.945 319.396C410.505 323.959 404.088 334.378 398.964 334.036C398.874 334.03 398.784 334.05 398.705 334.095C398.626 334.139 398.562 334.205 398.52 334.286C398.479 334.366 398.462 334.457 398.471 334.547C398.481 334.637 398.516 334.722 398.574 334.792C398.818 335.036 398.574 334.792 409.31 340.38C408.635 341.9 408.567 343.62 409.12 345.189C409.672 346.757 410.804 348.055 412.282 348.816C413.761 349.577 415.475 349.744 417.072 349.282C418.67 348.821 420.031 347.766 420.875 346.334C428.537 350.286 430.635 351.482 431.465 351.775C432.295 352.068 432.343 351.482 432.026 351.092C428.122 346.285 434.735 331.547 435.076 330.84ZM412.726 347.92C411.478 347.274 410.517 346.185 410.034 344.865C409.55 343.546 409.579 342.094 410.115 340.795L420.046 345.919C419.29 347.1 418.118 347.954 416.762 348.311C415.406 348.668 413.965 348.502 412.726 347.846V347.92ZM430.489 350.36L400.526 334.89C406.894 333.28 413.458 320.567 413.751 320.006C415.169 317.302 417.601 315.27 420.514 314.356C423.427 313.441 426.584 313.718 429.293 315.126C431.976 316.572 433.987 319.009 434.899 321.917C435.81 324.825 435.55 327.974 434.173 330.693C433.978 331.01 428.025 344.04 430.489 350.189V350.36Z" fill="#3B29AB"/>
<path d="M475.922 156.16L461.453 151.963L465.65 137.47C465.679 137.408 465.696 137.341 465.697 137.273C465.698 137.205 465.684 137.138 465.656 137.076C465.628 137.014 465.587 136.959 465.535 136.914C465.483 136.87 465.423 136.838 465.357 136.819C465.292 136.801 465.223 136.798 465.156 136.809C465.089 136.82 465.025 136.846 464.969 136.885C464.913 136.924 464.866 136.974 464.832 137.033C464.798 137.092 464.777 137.158 464.771 137.226L460.574 151.695L446.105 147.498C446.045 147.47 445.98 147.456 445.914 147.455C445.847 147.455 445.782 147.468 445.721 147.495C445.661 147.522 445.607 147.562 445.563 147.612C445.519 147.661 445.486 147.72 445.467 147.783C445.448 147.847 445.442 147.913 445.451 147.979C445.459 148.045 445.482 148.108 445.517 148.164C445.552 148.22 445.599 148.268 445.654 148.305C445.709 148.341 445.771 148.366 445.837 148.376L460.33 152.549L456.109 167.067C456.079 167.128 456.063 167.195 456.062 167.263C456.061 167.331 456.075 167.398 456.103 167.46C456.131 167.523 456.172 167.578 456.224 167.622C456.275 167.666 456.336 167.699 456.402 167.717C456.467 167.735 456.536 167.739 456.603 167.727C456.67 167.716 456.734 167.69 456.79 167.651C456.846 167.613 456.893 167.562 456.927 167.503C456.961 167.444 456.982 167.379 456.988 167.311L461.209 152.671C475.507 156.819 475.605 156.941 475.849 156.941C475.919 156.905 475.978 156.853 476.022 156.788C476.066 156.723 476.093 156.649 476.101 156.571C476.108 156.493 476.095 156.414 476.064 156.342C476.033 156.27 475.984 156.208 475.922 156.16Z" fill="#3B29AB"/>
<path d="M461.282 224.041C459.818 218.526 412.482 222.699 382.129 221.601C382.129 220.527 381.909 219.454 381.787 218.38C381.776 218.274 381.729 218.174 381.654 218.099C381.578 218.023 381.479 217.976 381.372 217.965C308.758 213.11 305 212.28 304.683 212.28C298.844 211.877 292.993 212.855 287.603 215.135L267.058 223.894C273.597 210.938 272.182 197.542 271.206 182.073C270.718 174.753 269.962 173.923 269.23 173.826C269.105 173.81 268.978 173.824 268.859 173.866C268.74 173.909 268.633 173.978 268.547 174.07L270.743 164.31C270.948 163.455 270.807 162.555 270.35 161.804C269.892 161.054 269.156 160.516 268.303 160.308C267.446 160.108 266.545 160.252 265.792 160.708C265.04 161.164 264.496 161.896 264.277 162.748L255.517 201.251C254.883 198.592 254.297 195.42 253.638 193.394C253.15 191.955 251.906 188.734 250.32 188.734C247.88 188.734 247.733 195.566 247.636 198.104C247.319 207.107 247.05 219.063 239.169 223.65C232.641 227.369 225.838 230.583 218.819 233.264C211.587 236.089 204.016 237.951 196.298 238.803C192.467 238.998 187.026 234.679 181.658 227.213C182.415 226.237 183.171 225.212 183.903 224.187C184.635 223.162 182.049 223.772 161.943 191.54C157.527 184.391 150.304 177.876 142.057 177.412C141.976 174.278 142.237 171.144 142.838 168.067C155.038 175.558 163.212 155.184 163.212 140.544C164.036 140.418 164.851 140.239 165.652 140.007C165.742 139.974 165.82 139.914 165.877 139.836C165.933 139.757 165.965 139.664 165.969 139.568C165.981 136.093 164.703 132.736 162.382 130.15C161.028 128.856 159.427 127.85 157.674 127.192C155.921 126.534 154.053 126.237 152.183 126.319C151.012 124.391 142.423 111.679 124.513 120.438C105.945 129.54 108.361 163.48 108.702 167.286C106.433 168.433 91.183 176.436 82.8382 189.076C75.2986 200.446 74.1274 214.061 79.7638 224.48C86.1078 236.29 100.187 242.804 119.438 242.878C123.35 261.409 134.145 277.768 149.645 288.652C154.659 300.705 164.047 310.415 175.924 315.834C194.932 324.154 216.672 319.396 235.582 311.222L276.281 293.581C276.989 313.101 277.721 347.529 276.281 366.903C276.273 367.008 276.303 367.113 276.366 367.198C276.428 367.284 276.52 367.343 276.623 367.366L279.063 368.001C278.721 379.615 274.598 393.06 276.623 399.038C278.525 403.366 281.085 407.374 284.211 410.92C294.777 423.12 308.416 450.351 314.101 448.692C319.787 447.032 312.662 391.425 313.931 368.172L315.565 367.708C315.647 367.676 315.72 367.623 315.775 367.554C315.831 367.486 315.868 367.404 315.883 367.318C321.739 327.448 323.739 278.282 312.076 258.811C379.42 258.176 375.394 258.274 375.516 258.006C375.638 257.737 376.321 256.542 376.687 255.834C392.547 256.883 404.162 261.519 410.384 259.64C414.796 257.904 418.912 255.492 422.584 252.491C435.296 242.17 462.795 229.824 461.282 224.041ZM265.033 163.041C265.095 162.72 265.221 162.415 265.403 162.143C265.585 161.872 265.82 161.64 266.093 161.461C266.367 161.282 266.674 161.16 266.995 161.102C267.317 161.044 267.647 161.051 267.966 161.123C268.285 161.195 268.586 161.33 268.851 161.521C269.117 161.711 269.341 161.953 269.512 162.232C269.682 162.511 269.794 162.822 269.842 163.145C269.89 163.468 269.873 163.798 269.791 164.114C261.08 202.52 261.08 203.008 259.933 206.18C259.641 207.034 258.787 207.864 258.03 207.571C257.274 207.278 256.591 205.936 255.932 203.569C255.834 203.252 255.151 206.351 265.033 163.114V163.041ZM195.883 239.876C200.91 239.876 212.329 236.851 219.015 234.264C226.073 231.529 232.917 228.266 239.486 224.504C247.758 219.624 248.075 207.571 248.417 198.177C248.709 190.296 249.905 189.734 250.125 189.71C250.857 189.588 251.979 191.833 252.565 193.736C254.273 198.836 255.005 210.523 259.323 208.181C260 207.766 260.509 207.127 260.763 206.375C262.837 200.348 266.155 182.488 267.815 177.315C268.049 176.549 268.352 175.806 268.717 175.094C268.961 174.631 268.986 174.509 269.205 175.094C269.811 177.372 270.131 179.716 270.157 182.073C271.645 205.058 273.183 219.258 255.883 237.729C246.733 247.489 210.792 266.546 190.637 270.718C186.195 271.518 181.612 270.741 177.681 268.522C171.166 264.96 163.675 258.274 155.404 248.66C165.327 243.764 174.024 236.701 180.853 227.994C186.367 235.631 191.784 239.876 195.883 239.876ZM138.177 142.057C138.211 141.977 138.218 141.888 138.196 141.804C138.174 141.72 138.124 141.646 138.055 141.593C132.98 136.713 138.739 131.028 141.447 135.615C141.911 136.42 143.009 138.055 143.887 138.055C147.117 139.167 150.44 139.984 153.818 140.495C156.566 141.113 159.407 141.195 162.187 140.739V142.398C161.821 151.792 157.307 166.091 149.987 168.458C145.961 169.751 141.447 167.408 136.933 161.308C136.665 160.942 135.933 161.064 136.201 161.918C136.469 162.772 137.714 165.725 141.081 174.118C141.02 175.232 141.02 176.348 141.081 177.461C137.836 177.461 133.59 179.438 127.905 175.314C138.251 145.644 135.079 151.67 138.177 142.057ZM117.999 226.017C117.12 207.742 121.512 193.712 127.563 176.314C133.639 180.56 138.007 178.388 141.252 178.437C149.475 178.608 156.624 184.976 161.089 192.174C167.752 203.193 175.001 213.847 182.805 224.09C175.048 235.185 164.386 243.931 151.988 249.368C144.79 240.901 139.641 233.288 139.422 232.971C139.355 232.882 139.258 232.821 139.149 232.797C139.041 232.774 138.927 232.79 138.83 232.843C138.732 232.897 138.657 232.983 138.618 233.087C138.579 233.191 138.578 233.306 138.617 233.41C139.153 234.582 151.622 261.568 172.581 272.45C163.163 279.77 151.768 286.871 150.011 287.969C129.32 273.622 119.194 250.368 117.999 226.017ZM314.955 443.836C314.565 447.276 313.882 447.74 313.687 447.813C309.026 449.204 294.801 421.9 284.748 410.31C281.734 406.85 279.266 402.95 277.428 398.745C276.817 396.237 276.709 393.633 277.111 391.083C279.225 395.046 281.761 398.768 284.675 402.185C294.728 413.848 307.684 438.175 314.955 443.836ZM313.418 394.865C300.915 390.117 289.35 383.194 279.258 374.418C279.502 372.149 279.673 370.099 279.746 368.22C290.559 370.983 301.883 371.067 312.735 368.464C312.467 375.76 312.93 386.301 313.418 394.865ZM314.882 366.952C302.534 370.39 289.464 370.263 277.184 366.586C277.501 362.316 277.697 357.387 277.843 352.19C290.7 354.266 303.788 354.504 316.712 352.897C316.143 357.68 315.533 362.364 314.882 366.952ZM316.81 351.97C303.829 353.601 290.682 353.362 277.77 351.262C278.038 339.428 277.916 326.252 277.77 315.785C285.993 295.874 288.457 290.043 289.14 288.237C289.531 287.188 289.14 286.968 288.75 287.164L235.07 310.368C211.89 320.396 192.077 321.958 176.144 315.004C164.615 309.752 155.468 300.378 150.499 288.725C150.51 288.661 150.51 288.595 150.499 288.53C159.806 282.745 168.768 276.423 177.339 269.596C181.395 271.815 186.09 272.573 190.637 271.743C203.96 268.986 226.31 258.86 241.877 249.368C242.634 249.368 293.605 232.288 310.563 258.664C321.251 275.086 321.007 315.248 316.81 351.97ZM311.344 257.957C296.704 235.387 255.956 244.586 244.781 247.636C249.052 245.033 253.021 241.964 256.615 238.486C260.42 234.503 263.7 230.051 266.375 225.236L287.92 216.038C293.242 213.793 299.02 212.84 304.781 213.256L363.219 217.599C365.189 231.241 362.977 245.159 356.875 257.518L311.344 257.957ZM374.784 257.347L357.875 257.518C363.89 245.158 366.066 231.28 364.121 217.672L380.909 218.941C382.641 234.899 382.251 243.634 374.784 257.347ZM382.104 222.601C388.277 222.796 399.672 222.772 407.383 222.601C402.163 234.884 394.829 246.157 385.715 255.907C383.471 255.566 379.347 255.151 376.98 254.98C383.08 243.512 383.202 233.654 382.202 222.601H382.104ZM421.754 251.881C418.2 254.8 414.216 257.154 409.945 258.86C407.416 259.366 404.812 259.366 402.283 258.86C405.902 257.135 409.329 255.033 412.507 252.589C420.17 246.743 428.225 241.427 436.614 236.68C441.494 233.776 452.913 226.92 456.475 222.772C459.891 223.309 460.331 223.992 460.379 224.187C461.624 228.97 433.71 242.268 421.852 251.832L421.754 251.881Z" fill="#3B29AB"/>
<path d="M234.24 359.998C231.046 356.565 226.838 354.245 222.231 353.377C217.623 352.509 212.859 353.138 208.635 355.172C204.411 357.207 200.949 360.539 198.756 364.683C196.562 368.826 195.752 373.563 196.445 378.2C195.227 378.599 194.114 379.267 193.189 380.153C192.263 381.04 191.549 382.123 191.097 383.322C190.646 384.521 190.47 385.807 190.581 387.083C190.693 388.36 191.089 389.595 191.742 390.698C192.394 391.801 193.286 392.744 194.351 393.456C195.416 394.169 196.628 394.633 197.896 394.816C199.165 394.998 200.458 394.893 201.68 394.509C202.903 394.124 204.024 393.471 204.96 392.596C209.344 396.023 214.866 397.658 220.409 397.17C225.952 396.683 231.104 394.109 234.822 389.969C238.54 385.829 240.549 380.432 240.441 374.869C240.333 369.305 238.116 363.99 234.24 359.998ZM232.557 390.4C228.966 393.749 224.316 395.736 219.414 396.017C214.512 396.297 209.666 394.854 205.717 391.937C206.917 390.581 207.656 388.879 207.828 387.076C208 385.273 207.596 383.462 206.674 381.903C205.752 380.344 204.36 379.118 202.697 378.4C201.035 377.682 199.187 377.509 197.421 377.907C196.909 374.319 197.332 370.66 198.649 367.283C199.965 363.906 202.132 360.927 204.937 358.632C207.743 356.338 211.094 354.807 214.665 354.187C218.236 353.567 221.906 353.879 225.321 355.093C228.736 356.307 231.78 358.383 234.158 361.118C236.536 363.853 238.168 367.156 238.895 370.706C239.623 374.257 239.422 377.935 238.311 381.385C237.201 384.835 235.219 387.94 232.557 390.4Z" fill="#3B29AB"/>
</svg>
