<svg width="19" height="18" viewBox="0 0 19 18" fill="none" xmlns="http://www.w3.org/2000/svg">
<path d="M16.7199 12.27L14.1799 11.98C13.5699 11.91 12.9699 12.12 12.5399 12.55L10.6999 14.39C7.86988 12.95 5.54988 10.64 4.10988 7.80002L5.95988 5.95002C6.38988 5.52002 6.59988 4.92002 6.52988 4.31002L6.23988 1.79002C6.11988 0.78002 5.26988 0.0200195 4.24988 0.0200195H2.51988C1.38988 0.0200195 0.449884 0.96002 0.519884 2.09002C1.04988 10.63 7.87988 17.45 16.4099 17.98C17.5399 18.05 18.4799 17.11 18.4799 15.98V14.25C18.4899 13.24 17.7299 12.39 16.7199 12.27Z" fill="#7940CC"/>
</svg>
